REM MD5 6b1a3a2f3c4169f8f2fbdc01b31c048c
FILE "Hyper PlayStation Re-mix 1998 No. 5 (Japan).bin" BINARY
  TRACK 01 MODE2/2352
    INDEX 01 00:00:00
  TRACK 02 AUDIO
    INDEX 00 53:06:55
    INDEX 01 53:09:55
  TRACK 03 AUDIO
    INDEX 00 55:38:48
    INDEX 01 55:41:48
  TRACK 04 AUDIO
    INDEX 00 56:10:06
    INDEX 01 56:14:06
REM LEADOUT 60:39:50
